<?xml version="1.0" encoding="UTF-8" standalone="no"?><!DOCTYPE svg PUBLIC "-//W3C//DTD SVG 1.1//EN" "http://www.w3.org/Graphics/SVG/1.1/DTD/svg11.dtd"><svg width="100%" height="100%" viewBox="0 0 2560 1440" version="1.1" xmlns="http://www.w3.org/2000/svg" xmlns:xlink="http://www.w3.org/1999/xlink" xml:space="preserve" xmlns:serif="http://www.serif.com/" style="fill-rule:evenodd;clip-rule:evenodd;stroke-miterlimit:10;"><g id="background"><rect x="0" y="0" width="2560" height="1440" style="fill:#efd3d8;"/></g><g id="Back-landscape" serif:id="Back landscape"><g id="errorpage_final"><path d="M1436.11,847.625c0,13.251 -174.008,23.994 -388.661,23.994c-214.651,0 -388.659,-10.743 -388.659,-23.994c0,-13.25 174.008,-23.994 388.659,-23.994c214.653,0 388.661,10.744 388.661,23.994" style="fill:#0e2849;fill-rule:nonzero;"/><path d="M1409.86,815.678c0,0 -82.232,-33.974 -86.157,21.047c0.138,27.113 18.197,53.221 18.197,53.221c0,0 -36.691,-32.23 -78.997,-28.407" style="fill:none;fill-rule:nonzero;stroke:#fff;stroke-width:5.24px;"/><path d="M947.095,762.434c2.067,6.824 3.648,13.765 5.048,20.749c1.427,6.981 2.421,14.045 3.112,21.15c0.68,7.105 1.013,14.269 0.691,21.463c-0.406,7.177 -1.331,14.436 -3.8,21.446c-1.267,3.482 -2.848,6.93 -5.134,10.049c-0.536,0.774 -1.085,1.479 -1.688,2.24c-0.328,0.393 -0.573,0.725 -1.114,1.252c-0.046,0.047 -0.206,0.183 -0.334,0.278c-0.04,0.028 -0.122,0.108 -0.44,0.267c-0.538,0.062 0.195,0.332 -1.768,0.17c-1.669,-0.72 -1.472,-1.26 -1.722,-1.995c-0.032,-0.581 0.005,-0.409 0.021,-0.651c0.061,-0.36 0.08,-0.344 0.123,-0.499c0.141,-0.416 0.245,-0.632 0.36,-0.882c0.874,-1.797 1.77,-3.296 2.693,-4.878c3.688,-6.217 7.656,-12.199 11.675,-18.164c8.093,-11.88 16.773,-23.377 25.757,-34.643c4.509,-5.618 9.125,-11.16 13.909,-16.567c4.734,-5.444 9.648,-10.749 14.808,-15.843c5.243,-4.991 10.576,-10.028 17.184,-13.6c1.664,-0.864 3.443,-1.6 5.382,-1.978c1.914,-0.372 4.133,-0.288 5.994,0.741c0.92,0.499 1.71,1.188 2.344,1.954l1.624,2.227c0.976,1.576 1.926,3.261 2.579,4.958c2.768,6.863 3.168,14.261 2.851,21.425c-0.382,7.192 -1.563,14.302 -3.187,21.286c-1.608,6.995 -3.749,13.853 -6.117,20.621c-2.395,6.775 -5.006,13.417 -8.091,20.008l-4.44,-2.075c4.165,-8.021 8.619,-15.776 13.253,-23.49c4.67,-7.676 9.478,-15.287 14.662,-22.67c2.576,-3.7 5.216,-7.365 7.944,-10.97c2.696,-3.625 5.509,-7.174 8.424,-10.651c2.888,-3.492 5.88,-6.914 8.97,-10.257c3.088,-3.345 6.267,-6.621 9.63,-9.733c3.346,-3.124 6.81,-6.146 10.466,-8.964c1.832,-1.404 3.643,-2.831 5.598,-4.096l2.874,-1.957l3.008,-1.79c3.974,-2.432 8.299,-4.374 12.736,-6.014c4.515,-1.445 9.232,-2.569 14.067,-2.538c4.837,-0.196 9.621,0.82 14.021,2.193c4.536,1.417 8.79,3.24 12.84,5.482c8.051,4.5 15.456,9.96 21.84,16.401c0.104,0.103 0.099,0.265 -0.008,0.363c-0.101,0.095 -0.269,0.087 -0.37,-0.003c-3.39,-2.952 -7.04,-5.639 -10.79,-8.136c-3.765,-2.484 -7.688,-4.729 -11.749,-6.663c-4.037,-1.954 -8.291,-3.592 -12.549,-4.71c-4.36,-1.155 -8.752,-1.88 -13.096,-1.507c-4.379,0.123 -8.638,1.417 -12.779,2.821c-4.08,1.64 -8.077,3.546 -11.795,5.963l-2.805,1.774l-2.699,1.944c-1.826,1.25 -3.533,2.674 -5.258,4.071c-3.44,2.8 -6.712,5.814 -9.878,8.93c-6.328,6.241 -12.274,12.875 -17.869,19.792c-2.805,3.451 -5.533,6.966 -8.216,10.52c-2.691,3.544 -5.301,7.149 -7.848,10.798c-5.085,7.3 -10.061,14.688 -14.768,22.237c-4.693,7.545 -9.259,15.226 -13.44,22.984l-4.44,-2.078c3.032,-6.292 5.832,-12.839 8.36,-19.412c2.536,-6.585 4.736,-13.286 6.616,-20.057c1.875,-6.773 3.309,-13.657 3.968,-20.605c0.563,-6.917 0.408,-14.019 -1.952,-20.509c-0.579,-1.646 -1.317,-3.122 -2.192,-4.601c-1.077,-1.504 -1.877,-2.952 -3.291,-3.667c-2.784,-1.566 -6.525,-0.403 -9.6,1.145c-6.306,3.289 -11.73,8.2 -16.805,13.225c-10.168,10.157 -18.968,21.53 -27.437,33.05c-8.478,11.533 -16.435,23.416 -24.302,35.326c-3.938,5.948 -7.81,11.955 -11.496,17.995c-0.896,1.494 -1.84,3.065 -2.541,4.469l-0.157,0.35l0.037,-0.18c0.011,-0.185 0.027,0.044 0.005,-0.483c-0.234,-0.689 -0.045,-1.15 -1.64,-1.877c-1.906,-0.132 -1.125,0.084 -1.613,0.128c-0.264,0.139 -0.296,0.175 -0.296,0.175c-0.043,0.023 -0.109,0.093 -0.075,0.059c0.11,-0.1 0.43,-0.465 0.675,-0.766c0.517,-0.64 1.085,-1.348 1.571,-2.042c2.002,-2.656 3.464,-5.737 4.661,-8.912c2.427,-6.372 3.507,-13.31 4.061,-20.24c0.576,-6.953 0.568,-13.986 0.184,-21.009c-0.368,-7.027 -1.149,-14.045 -2.037,-21.055c-0.92,-7.007 -2.115,-13.991 -3.517,-20.936c-0.03,-0.139 0.061,-0.275 0.205,-0.306c0.136,-0.028 0.272,0.054 0.312,0.18" style="fill:#fff;fill-rule:nonzero;"/><path d="M941.219,430.402c0,0 21.333,39.31 16,99.368" style="fill:none;fill-rule:nonzero;stroke:#fff;stroke-width:5.24px;"/><path d="M968.001,396.013c0,0 22.085,61.447 0.843,147.397" style="fill:none;fill-rule:nonzero;stroke:#fff;stroke-width:5.24px;"/><path d="M1450.02,509.737c0,0 8.136,158.281 -80.515,224.815" style="fill:none;fill-rule:nonzero;stroke:#fff;stroke-width:5.24px;"/><path d="M1414.49,460.774c0,0 45.888,69.459 -3.421,178.853" style="fill:none;fill-rule:nonzero;stroke:#fff;stroke-width:5.24px;"/><path d="M697.479,577.168c0,0 -3.789,73.99 57.309,123.683" style="fill:none;fill-rule:nonzero;stroke:#fff;stroke-width:5.24px;"/><path d="M725.615,624.98c0,0 10.23,48.084 54.251,77.182" style="fill:none;fill-rule:nonzero;stroke:#fff;stroke-width:5.24px;"/><path d="M569.219,439.805c4.011,12.505 9.976,24.203 16.469,35.671c1.096,1.931 2.304,3.382 -0.584,5.061c-10.536,6.13 -20.97,12.412 -31.44,18.638c-11.248,-7.123 -22.576,-14.156 -32.173,-23.246c-7.389,-7 -13.848,-14.598 -17.579,-23.992c-3.013,-7.585 -2.954,-15.217 0.024,-22.813c2.462,-6.277 8.107,-9.561 15.726,-9.628c10.205,-0.092 19.053,3.855 27.664,8.111c7.133,3.528 13.88,7.719 20.794,11.612c0.363,0.196 0.731,0.391 1.099,0.586" style="fill:#fafcd0;fill-rule:nonzero;"/><path d="M554.629,524.612c-4.387,-10.019 -10.197,-16.236 -17.099,-19.551c-1.821,1.615 -3.656,3.081 -5.461,4.873c-5.779,5.739 -10.717,13.639 -14.048,25.509c-0.389,1.386 -0.685,2.828 -0.856,4.25c-0.267,2.191 -0.648,4.539 0.349,5.498c1.051,1.01 2.208,-0.779 3.155,-2.53c4.627,-8.563 9.677,-12.225 14.84,-14.511c6.584,-2.916 12.933,-3.885 19.12,-3.538" style="fill:#decd30;fill-rule:nonzero;"/><path d="M569.474,525.512c-10.702,-0.041 -21.392,-1 -32.107,0.164c-8.269,0.903 -16.4,1.988 -23.995,5.632c-6.616,3.173 -11.032,8.126 -14.026,14.48c-1.371,2.91 -3.203,5.51 -5.851,7.547c-1.539,1.183 -2.944,1.705 -4.483,0.103c-0.325,-3.762 0.432,-7.406 1.715,-10.893c3.944,-10.738 11.349,-19.278 19.517,-27.159c5.814,-5.611 12.222,-10.649 18.363,-15.941c0.219,-0.164 0.464,-0.265 0.739,-0.298c0.754,-0.026 1.381,-0.255 1.688,-0.99c5.714,-3.561 12.173,-5.716 18.082,-8.907c1.344,-0.659 2.68,-1.314 4.024,-1.973c8.427,-3.523 16.84,-7.089 25.307,-10.53c2.408,-0.977 1.659,-2.27 1.056,-3.931c-3.581,-9.859 -6.731,-19.834 -8.291,-30.212l-0.45,-1.872c-0.048,-0.993 -0.128,-2.559 -0.176,-3.554l0,-0.01c-0.12,-12.832 1.914,-25.403 4.701,-37.903c2.192,-9.836 5.443,-19.376 8.651,-28.929c2.605,-7.747 6.696,-15.114 12.842,-20.702c0.523,-0.476 1.139,-0.831 1.942,-0.941c2.984,1.378 2.866,4.291 2.794,6.999c-0.034,1.42 -0.237,2.831 -0.576,4.215c-3.776,15.385 -2.914,30.736 0.371,46.085c4.128,18.154 10.232,32.873 24.043,49.657c3.757,3.937 7.904,7.583 10.138,12.646c0.155,1.504 0.368,3.006 0.454,4.513c0.576,9.877 -1.784,18.478 -11.155,24.11c-0.733,0.439 -2.043,0.439 -2.168,1.794c1.8,0.834 3.147,-1.059 4.813,-0.717c12.115,8.743 24.232,17.486 36.347,26.223c0.451,1.824 -1.093,2.346 -2.216,3.125c-4.299,2.98 -8.608,5.95 -12.915,8.923c-8.056,-7.27 -14.93,-15.599 -22.512,-23.292c-1.576,-1.6 -3.184,-3.168 -4.778,-4.75c-0.838,-2.368 0.061,-5.13 -1.867,-8.061c-1.392,5.14 -3.405,9.344 -7.352,12.006c-8.531,5.752 -17.232,11.268 -28.152,11.929c-4.851,0.295 -9.68,0.933 -14.517,1.414" style="fill:#f7ec33;fill-rule:nonzero;"/><path d="M623.833,453.769c-14.232,-17.208 -24.909,-40.122 -22.019,-51.74c2.211,-3.805 4.24,-7.714 6.667,-11.396c7.779,-11.795 18.115,-20.495 33.152,-23.349c1.757,-0.334 3.568,-0.406 5.344,-0.182c2.733,0.347 5.675,0.475 6.733,3.407c1.118,3.093 -1.226,5.163 -3.504,6.721c-11.117,7.609 -16.242,18.546 -19.69,30.395c-4.392,15.104 -6.36,30.528 -6.683,46.144" style="fill:#decd30;fill-rule:nonzero;"/><path d="M598.755,348.757c-1.424,0.732 -2.421,1.609 -3.197,2.545c-9.171,11.045 -13.939,22.565 -15.856,33.393c-2.36,13.351 -4.8,26.714 -5.203,39.615c-0.512,16.396 0.376,32.303 5.286,46.872c0.146,0.443 -0.158,1.075 -0.251,1.618c-17.584,-26.712 -25.464,-56.621 -7.88,-94.644c4.109,-8.887 8.288,-18.083 19.845,-26.144c2.304,-1.61 4.328,-3.384 7.256,-3.255" style="fill:#decd30;fill-rule:nonzero;"/><path d="M655.355,553.246l-40.405,-43.401c-1.315,-1.422 -1.315,-3.576 0,-4.988l8.453,-9.07c1.344,-1.44 3.608,-1.627 5.195,-0.429l47.44,33.886c2.2,2.019 2.432,0.79 -0.608,6.493l-15.371,16.732c-2.8,2.374 -2.8,2.374 -4.704,0.777" style="fill:#f7ec33;fill-rule:nonzero;"/><path d="M677.662,531.485c-12.32,11.162 -16.133,17.838 -20.269,22.934" style="fill:#fff;fill-rule:nonzero;"/><path d="M677.662,531.485c0,0 0.085,0.254 0.243,0.735c0.13,0.453 0.458,1.25 0.608,1.998c0.186,0.784 0.472,1.797 0.57,2.728c0.166,0.985 0.4,2.075 0.486,3.089c0.229,2.054 0.114,4.132 -0.254,5.968c-0.405,1.833 -1.17,3.392 -2.269,4.667c-1.107,1.268 -2.539,2.263 -4.341,2.952c-0.886,0.357 -1.899,0.615 -2.91,0.856c-1.037,0.224 -2.125,0.383 -3.224,0.499c-1.085,0.113 -2.266,0.116 -3.32,0.108c-0.984,0.039 -2.08,-0.082 -2.917,-0.162c-0.805,-0.046 -1.672,-0.267 -2.155,-0.344c-0.512,-0.103 -0.786,-0.16 -0.786,-0.16c0,0 -0.126,-0.242 -0.358,-0.697c-0.205,-0.429 -0.658,-1.165 -0.946,-1.867c-0.331,-0.745 -0.803,-1.668 -1.088,-2.561c-0.355,-0.938 -0.747,-1.985 -0.976,-3.024c-0.502,-2.093 -0.616,-4.307 -0.203,-6.444c0.419,-2.129 1.421,-4.088 2.829,-5.713c1.44,-1.597 3.254,-2.88 5.366,-3.624c2.12,-0.761 4.405,-1.044 6.717,-0.984c1.125,0.018 2.309,0.187 3.331,0.37c0.962,0.136 1.997,0.455 2.8,0.668c0.77,0.178 1.584,0.53 2.045,0.674c0.491,0.175 0.752,0.268 0.752,0.268" style="fill:#d7a481;fill-rule:nonzero;"/><path d="M556.51,524.265c0,0 53.349,8.488 63.469,-23.927l7.688,-4.521c0,0 26.067,-20.052 -3.835,-42.048c2.824,7.825 11.672,26.558 -2.962,45.136c-14.635,18.576 -64.36,25.36 -64.36,25.36" style="fill:#d7a481;fill-rule:nonzero;"/><path d="M506.204,438.578c1.066,3.456 3.432,5.83 5.28,5.297c1.85,-0.529 2.482,-3.764 1.413,-7.22c-1.067,-3.456 -3.432,-5.83 -5.28,-5.297c-1.848,0.529 -2.48,3.764 -1.413,7.22" style="fill:#fff;fill-rule:nonzero;"/><path d="M673.709,385.963c0,0 5.728,29.795 -17.597,55.803" style="fill:none;fill-rule:nonzero;stroke:#fff;stroke-width:5.24px;"/><path d="M707.132,383.282c0,0 -0.571,40.78 -45.461,70.997" style="fill:none;fill-rule:nonzero;stroke:#fff;stroke-width:5.24px;"/><path d="M515.323,582.223c0,0 46.73,28.337 102.058,5.93" style="fill:none;fill-rule:nonzero;stroke:#fff;stroke-width:5.24px;"/><path d="M557.026,580.619c0,0 35.144,10.152 70.643,-8.339" style="fill:none;fill-rule:nonzero;stroke:#fff;stroke-width:5.24px;"/><path d="M776.93,643.766l10.291,-19.695l-36.392,-17.682l26.444,-50.606l36.392,17.682l34.622,-66.258l21.58,10.485l72.982,139.474l-17.72,33.911l-118.243,-57.451l-10.291,19.695l-19.665,-9.555Zm78.958,-103.918l-22.967,43.954l66.655,32.386l-43.688,-76.34Z" style="fill:#eb8f8f;fill-rule:nonzero;"/><path d="M1300.58,761.118l-15.715,-15.712l-29.634,27.561l-40.379,-40.37l29.634,-27.561l-52.867,-52.857l17.572,-16.343l160.915,-21.924l27.058,27.052l-96.286,89.55l15.715,15.711l-16.013,14.893Zm-74.528,-105.415l35.072,35.064l54.277,-50.48l-89.349,15.416Z" style="fill:#eb8f8f;fill-rule:nonzero;"/><path d="M1136.66,532.461c47.985,28.908 53.86,71.324 17.627,127.249c-36.234,55.925 -78.343,69.433 -126.328,40.525c-48.068,-28.959 -53.985,-71.401 -17.752,-127.326c36.234,-55.924 78.385,-69.407 126.453,-40.448Zm-8.415,12.988c-13.109,-7.898 -34.976,11.786 -65.599,59.052c-30.624,47.266 -39.381,74.848 -26.272,82.745c13.026,7.848 34.851,-11.862 65.474,-59.128c30.624,-47.265 39.423,-74.822 26.397,-82.669Z" style="fill:#eb8f8f;fill-rule:nonzero;"/></g></g><g id="Texte-info" serif:id="Texte info"><rect x="797.954" y="946.626" width="2.377" height="17.961" style="fill-opacity:0.5;fill-rule:nonzero;"/><rect x="804.191" y="946.626" width="2.205" height="17.961" style="fill-opacity:0.5;fill-rule:nonzero;"/><rect x="809.765" y="946.626" width="2.205" height="17.961" style="fill-opacity:0.5;fill-rule:nonzero;"/><path d="M823.916,964.587l0,-1.911c-1.012,1.47 -2.389,2.205 -4.129,2.205c-0.767,0 -1.484,-0.147 -2.15,-0.441c-0.665,-0.294 -1.16,-0.663 -1.482,-1.109c-0.323,-0.445 -0.55,-0.99 -0.68,-1.635c-0.09,-0.433 -0.135,-1.119 -0.135,-2.059l0,-8.061l2.205,0l0,7.216c0,1.152 0.045,1.928 0.135,2.328c0.139,0.58 0.433,1.035 0.882,1.366c0.45,0.331 1.005,0.496 1.667,0.496c0.661,0 1.282,-0.169 1.862,-0.508c0.58,-0.339 0.99,-0.801 1.231,-1.385c0.241,-0.584 0.362,-1.431 0.362,-2.542l0,-6.971l2.205,0l0,13.011l-1.973,0Z" style="fill-opacity:0.5;fill-rule:nonzero;"/><path d="M828.462,960.703l2.181,-0.343c0.122,0.874 0.463,1.544 1.023,2.01c0.559,0.465 1.341,0.698 2.346,0.698c1.013,0 1.764,-0.206 2.254,-0.619c0.491,-0.412 0.736,-0.896 0.736,-1.452c0,-0.498 -0.217,-0.89 -0.65,-1.176c-0.302,-0.196 -1.053,-0.445 -2.254,-0.747c-1.617,-0.409 -2.738,-0.762 -3.363,-1.06c-0.625,-0.298 -1.099,-0.711 -1.422,-1.237c-0.322,-0.527 -0.484,-1.109 -0.484,-1.746c0,-0.58 0.133,-1.117 0.399,-1.612c0.265,-0.494 0.627,-0.904 1.084,-1.231c0.343,-0.253 0.811,-0.467 1.403,-0.643c0.592,-0.176 1.227,-0.263 1.905,-0.263c1.021,0 1.917,0.147 2.689,0.441c0.772,0.294 1.342,0.692 1.709,1.194c0.368,0.502 0.621,1.174 0.76,2.016l-2.156,0.294c-0.098,-0.67 -0.382,-1.193 -0.852,-1.569c-0.469,-0.375 -1.133,-0.563 -1.991,-0.563c-1.013,0 -1.735,0.167 -2.168,0.502c-0.433,0.335 -0.65,0.727 -0.65,1.176c0,0.286 0.09,0.544 0.27,0.772c0.18,0.237 0.461,0.433 0.845,0.588c0.221,0.082 0.87,0.27 1.948,0.564c1.56,0.416 2.649,0.757 3.266,1.023c0.616,0.265 1.1,0.651 1.451,1.158c0.352,0.506 0.527,1.135 0.527,1.887c0,0.735 -0.214,1.427 -0.643,2.076c-0.429,0.65 -1.048,1.152 -1.856,1.507c-0.809,0.356 -1.724,0.533 -2.745,0.533c-1.69,0 -2.979,-0.351 -3.865,-1.053c-0.886,-0.703 -1.452,-1.744 -1.697,-3.125Z" style="fill-opacity:0.5;fill-rule:nonzero;"/><path d="M846.705,962.615l0.319,1.948c-0.621,0.13 -1.176,0.196 -1.667,0.196c-0.8,0 -1.421,-0.127 -1.862,-0.38c-0.441,-0.253 -0.751,-0.586 -0.931,-0.999c-0.18,-0.412 -0.27,-1.28 -0.27,-2.603l0,-7.486l-1.617,0l0,-1.715l1.617,0l0,-3.223l2.194,-1.323l0,4.546l2.217,0l0,1.715l-2.217,0l0,7.608c0,0.629 0.038,1.034 0.116,1.213c0.078,0.18 0.204,0.323 0.38,0.429c0.175,0.106 0.427,0.159 0.753,0.159c0.245,0 0.568,-0.028 0.968,-0.085Z" style="fill-opacity:0.5;fill-rule:nonzero;"/><path d="M848.837,964.587l0,-13.011l1.985,0l0,1.972c0.506,-0.923 0.974,-1.531 1.403,-1.825c0.429,-0.294 0.9,-0.441 1.415,-0.441c0.743,0 1.499,0.236 2.266,0.71l-0.759,2.046c-0.539,-0.318 -1.078,-0.478 -1.617,-0.478c-0.482,0 -0.915,0.145 -1.299,0.435c-0.384,0.29 -0.658,0.693 -0.821,1.207c-0.245,0.784 -0.368,1.642 -0.368,2.573l0,6.812l-2.205,0Z" style="fill-opacity:0.5;fill-rule:nonzero;"/><path d="M865.708,962.982c-0.817,0.694 -1.603,1.185 -2.358,1.47c-0.756,0.286 -1.567,0.429 -2.432,0.429c-1.43,0 -2.528,-0.349 -3.296,-1.047c-0.768,-0.699 -1.152,-1.591 -1.152,-2.677c0,-0.637 0.145,-1.219 0.435,-1.746c0.29,-0.527 0.67,-0.95 1.139,-1.268c0.47,-0.319 0.999,-0.56 1.587,-0.723c0.433,-0.115 1.086,-0.225 1.96,-0.331c1.781,-0.212 3.092,-0.466 3.933,-0.76c0.008,-0.302 0.013,-0.494 0.013,-0.575c0,-0.899 -0.209,-1.532 -0.625,-1.9c-0.564,-0.498 -1.401,-0.747 -2.512,-0.747c-1.037,0 -1.803,0.182 -2.297,0.545c-0.494,0.364 -0.86,1.007 -1.097,1.93l-2.156,-0.294c0.196,-0.923 0.519,-1.668 0.968,-2.236c0.449,-0.568 1.098,-1.005 1.948,-1.311c0.849,-0.306 1.834,-0.459 2.953,-0.459c1.11,0 2.013,0.13 2.707,0.392c0.695,0.261 1.205,0.59 1.532,0.986c0.327,0.396 0.555,0.896 0.686,1.501c0.073,0.375 0.11,1.053 0.11,2.034l0,2.94c0,2.05 0.047,3.347 0.141,3.89c0.094,0.543 0.28,1.064 0.558,1.562l-2.304,0c-0.229,-0.457 -0.376,-0.992 -0.441,-1.605Zm-0.184,-4.925c-0.8,0.327 -2.001,0.604 -3.602,0.833c-0.906,0.131 -1.548,0.278 -1.923,0.441c-0.376,0.163 -0.666,0.402 -0.87,0.717c-0.204,0.314 -0.307,0.663 -0.307,1.047c0,0.588 0.223,1.079 0.668,1.471c0.445,0.392 1.097,0.588 1.954,0.588c0.85,0 1.605,-0.186 2.267,-0.558c0.662,-0.371 1.148,-0.88 1.458,-1.525c0.237,-0.498 0.355,-1.233 0.355,-2.205l0,-0.809Z" style="fill-opacity:0.5;fill-rule:nonzero;"/><path d="M875.988,962.615l0.318,1.948c-0.621,0.13 -1.176,0.196 -1.666,0.196c-0.801,0 -1.421,-0.127 -1.862,-0.38c-0.442,-0.253 -0.752,-0.586 -0.932,-0.999c-0.179,-0.412 -0.269,-1.28 -0.269,-2.603l0,-7.486l-1.617,0l0,-1.715l1.617,0l0,-3.223l2.193,-1.323l0,4.546l2.218,0l0,1.715l-2.218,0l0,7.608c0,0.629 0.039,1.034 0.116,1.213c0.078,0.18 0.205,0.323 0.38,0.429c0.176,0.106 0.427,0.159 0.754,0.159c0.245,0 0.567,-0.028 0.968,-0.085Z" style="fill-opacity:0.5;fill-rule:nonzero;"/><path d="M878.156,949.162l0,-2.536l2.206,0l0,2.536l-2.206,0Zm0,15.425l0,-13.011l2.206,0l0,13.011l-2.206,0Z" style="fill-opacity:0.5;fill-rule:nonzero;"/><path d="M882.898,958.081c0,-2.409 0.669,-4.194 2.009,-5.354c1.119,-0.964 2.483,-1.445 4.092,-1.445c1.789,0 3.251,0.586 4.386,1.758c1.136,1.172 1.703,2.791 1.703,4.858c0,1.674 -0.251,2.991 -0.753,3.951c-0.502,0.96 -1.233,1.705 -2.193,2.236c-0.96,0.531 -2.007,0.796 -3.143,0.796c-1.821,0 -3.294,-0.584 -4.417,-1.752c-1.123,-1.168 -1.684,-2.85 -1.684,-5.048Zm2.266,0c0,1.667 0.364,2.914 1.091,3.743c0.727,0.829 1.642,1.244 2.744,1.244c1.095,0 2.005,-0.417 2.732,-1.25c0.727,-0.833 1.091,-2.103 1.091,-3.81c0,-1.609 -0.366,-2.828 -1.097,-3.657c-0.731,-0.829 -1.639,-1.244 -2.726,-1.244c-1.102,0 -2.017,0.413 -2.744,1.238c-0.727,0.824 -1.091,2.07 -1.091,3.736Z" style="fill-opacity:0.5;fill-rule:nonzero;"/><path d="M897.674,964.587l0,-13.011l1.984,0l0,1.85c0.956,-1.43 2.337,-2.144 4.142,-2.144c0.784,0 1.505,0.14 2.162,0.422c0.658,0.282 1.15,0.652 1.477,1.109c0.326,0.457 0.555,1.001 0.686,1.63c0.081,0.408 0.122,1.123 0.122,2.144l0,8l-2.205,0l0,-7.915c0,-0.898 -0.086,-1.57 -0.258,-2.015c-0.171,-0.445 -0.475,-0.801 -0.912,-1.066c-0.437,-0.265 -0.95,-0.398 -1.538,-0.398c-0.939,0 -1.75,0.298 -2.432,0.894c-0.682,0.596 -1.023,1.728 -1.023,3.394l0,7.106l-2.205,0Z" style="fill-opacity:0.5;fill-rule:nonzero;"/><path d="M920.634,964.587l-2.046,0l0,-17.961l2.205,0l0,6.408c0.931,-1.168 2.12,-1.752 3.566,-1.752c0.8,0 1.558,0.161 2.272,0.483c0.715,0.323 1.303,0.776 1.765,1.36c0.461,0.584 0.823,1.289 1.084,2.114c0.261,0.825 0.392,1.707 0.392,2.646c0,2.23 -0.551,3.954 -1.654,5.171c-1.103,1.217 -2.426,1.825 -3.97,1.825c-1.535,0 -2.74,-0.641 -3.614,-1.923l0,1.629Zm-0.025,-6.604c0,1.56 0.213,2.688 0.638,3.382c0.694,1.135 1.633,1.703 2.818,1.703c0.963,0 1.796,-0.419 2.499,-1.256c0.702,-0.837 1.054,-2.085 1.054,-3.743c0,-1.699 -0.337,-2.953 -1.011,-3.761c-0.674,-0.809 -1.489,-1.213 -2.444,-1.213c-0.964,0 -1.797,0.418 -2.5,1.256c-0.702,0.837 -1.054,2.048 -1.054,3.632Z" style="fill-opacity:0.5;fill-rule:nonzero;"/><path d="M932.457,969.598l-0.245,-2.07c0.482,0.13 0.903,0.196 1.262,0.196c0.49,0 0.882,-0.082 1.176,-0.245c0.294,-0.164 0.535,-0.392 0.723,-0.686c0.139,-0.221 0.364,-0.768 0.674,-1.642c0.041,-0.123 0.106,-0.302 0.196,-0.539l-4.938,-13.036l2.377,0l2.708,7.535c0.351,0.955 0.666,1.96 0.943,3.014c0.254,-1.013 0.556,-2.002 0.907,-2.965l2.781,-7.584l2.206,0l-4.95,13.232c-0.531,1.429 -0.944,2.413 -1.238,2.952c-0.392,0.727 -0.841,1.26 -1.347,1.599c-0.507,0.339 -1.111,0.509 -1.814,0.509c-0.424,0 -0.898,-0.09 -1.421,-0.27Z" style="fill-opacity:0.5;fill-rule:nonzero;"/><path d="M952.256,964.587l0,-17.961l2.377,0l0,8.907l8.92,-8.907l3.222,0l-7.535,7.277l7.866,10.684l-3.137,0l-6.395,-9.091l-2.941,2.867l0,6.224l-2.377,0Z" style="fill-opacity:0.5;fill-rule:nonzero;"/><path d="M968.809,964.587l0,-17.961l2.205,0l0,6.444c1.029,-1.192 2.328,-1.788 3.896,-1.788c0.964,0 1.801,0.189 2.512,0.569c0.711,0.38 1.219,0.905 1.525,1.575c0.307,0.669 0.46,1.641 0.46,2.916l0,8.245l-2.205,0l0,-8.245c0,-1.103 -0.239,-1.906 -0.717,-2.408c-0.478,-0.502 -1.154,-0.753 -2.028,-0.753c-0.653,0 -1.268,0.169 -1.844,0.508c-0.576,0.339 -0.986,0.798 -1.231,1.378c-0.245,0.58 -0.368,1.381 -0.368,2.402l0,7.118l-2.205,0Z" style="fill-opacity:0.5;fill-rule:nonzero;"/><path d="M991.255,962.982c-0.817,0.694 -1.603,1.185 -2.359,1.47c-0.755,0.286 -1.566,0.429 -2.432,0.429c-1.429,0 -2.528,-0.349 -3.296,-1.047c-0.767,-0.699 -1.151,-1.591 -1.151,-2.677c0,-0.637 0.145,-1.219 0.435,-1.746c0.29,-0.527 0.669,-0.95 1.139,-1.268c0.47,-0.319 0.999,-0.56 1.587,-0.723c0.433,-0.115 1.086,-0.225 1.96,-0.331c1.781,-0.212 3.092,-0.466 3.933,-0.76c0.008,-0.302 0.012,-0.494 0.012,-0.575c0,-0.899 -0.208,-1.532 -0.625,-1.9c-0.563,-0.498 -1.401,-0.747 -2.511,-0.747c-1.038,0 -1.803,0.182 -2.298,0.545c-0.494,0.364 -0.859,1.007 -1.096,1.93l-2.157,-0.294c0.196,-0.923 0.519,-1.668 0.968,-2.236c0.45,-0.568 1.099,-1.005 1.948,-1.311c0.85,-0.306 1.834,-0.459 2.953,-0.459c1.111,0 2.014,0.13 2.708,0.392c0.694,0.261 1.205,0.59 1.531,0.986c0.327,0.396 0.556,0.896 0.686,1.501c0.074,0.375 0.111,1.053 0.111,2.034l0,2.94c0,2.05 0.047,3.347 0.141,3.89c0.094,0.543 0.279,1.064 0.557,1.562l-2.303,0c-0.229,-0.457 -0.376,-0.992 -0.441,-1.605Zm-0.184,-4.925c-0.801,0.327 -2.001,0.604 -3.602,0.833c-0.907,0.131 -1.548,0.278 -1.924,0.441c-0.376,0.163 -0.665,0.402 -0.87,0.717c-0.204,0.314 -0.306,0.663 -0.306,1.047c0,0.588 0.223,1.079 0.668,1.471c0.445,0.392 1.096,0.588 1.954,0.588c0.849,0 1.605,-0.186 2.267,-0.558c0.661,-0.371 1.147,-0.88 1.458,-1.525c0.236,-0.498 0.355,-1.233 0.355,-2.205l0,-0.809Z" style="fill-opacity:0.5;fill-rule:nonzero;"/><path d="M1005.16,964.587l0,-1.642c-0.825,1.291 -2.038,1.936 -3.639,1.936c-1.037,0 -1.991,-0.286 -2.861,-0.857c-0.87,-0.572 -1.544,-1.371 -2.022,-2.396c-0.477,-1.025 -0.716,-2.203 -0.716,-3.534c0,-1.299 0.216,-2.477 0.649,-3.535c0.433,-1.058 1.082,-1.868 1.948,-2.432c0.866,-0.564 1.834,-0.845 2.904,-0.845c0.784,0 1.482,0.165 2.095,0.496c0.613,0.331 1.111,0.761 1.495,1.292l0,-6.444l2.193,0l0,17.961l-2.046,0Zm-6.972,-6.493c0,1.666 0.352,2.912 1.054,3.737c0.702,0.824 1.531,1.237 2.487,1.237c0.964,0 1.783,-0.394 2.457,-1.182c0.674,-0.789 1.01,-1.991 1.01,-3.609c0,-1.78 -0.343,-3.087 -1.029,-3.92c-0.686,-0.833 -1.531,-1.25 -2.536,-1.25c-0.98,0 -1.799,0.4 -2.456,1.201c-0.658,0.8 -0.987,2.062 -0.987,3.786Z" style="fill-opacity:0.5;fill-rule:nonzero;"/><path d="M1010.69,949.162l0,-2.536l2.206,0l0,2.536l-2.206,0Zm0,15.425l0,-13.011l2.206,0l0,13.011l-2.206,0Zm5.832,-15.401l0,-2.56l2.206,0l0,2.56l-2.206,0Zm-2.793,20.449l0.416,-1.875c0.442,0.115 0.789,0.172 1.042,0.172c0.449,0 0.784,-0.149 1.005,-0.447c0.22,-0.298 0.33,-1.044 0.33,-2.236l0,-13.673l2.206,0l0,13.722c0,1.601 -0.209,2.716 -0.625,3.345c-0.531,0.816 -1.413,1.225 -2.647,1.225c-0.596,0 -1.172,-0.078 -1.727,-0.233Z" style="fill-opacity:0.5;fill-rule:nonzero;"/><path d="M1030.3,962.982c-0.817,0.694 -1.603,1.185 -2.359,1.47c-0.755,0.286 -1.566,0.429 -2.432,0.429c-1.429,0 -2.528,-0.349 -3.295,-1.047c-0.768,-0.699 -1.152,-1.591 -1.152,-2.677c0,-0.637 0.145,-1.219 0.435,-1.746c0.29,-0.527 0.67,-0.95 1.139,-1.268c0.47,-0.319 0.999,-0.56 1.587,-0.723c0.433,-0.115 1.086,-0.225 1.96,-0.331c1.781,-0.212 3.092,-0.466 3.933,-0.76c0.008,-0.302 0.012,-0.494 0.012,-0.575c0,-0.899 -0.208,-1.532 -0.625,-1.9c-0.563,-0.498 -1.4,-0.747 -2.511,-0.747c-1.038,0 -1.803,0.182 -2.297,0.545c-0.495,0.364 -0.86,1.007 -1.097,1.93l-2.156,-0.294c0.196,-0.923 0.518,-1.668 0.968,-2.236c0.449,-0.568 1.098,-1.005 1.948,-1.311c0.849,-0.306 1.833,-0.459 2.952,-0.459c1.111,0 2.014,0.13 2.708,0.392c0.694,0.261 1.205,0.59 1.532,0.986c0.326,0.396 0.555,0.896 0.686,1.501c0.073,0.375 0.11,1.053 0.11,2.034l0,2.94c0,2.05 0.047,3.347 0.141,3.89c0.094,0.543 0.28,1.064 0.557,1.562l-2.303,0c-0.229,-0.457 -0.376,-0.992 -0.441,-1.605Zm-0.184,-4.925c-0.8,0.327 -2.001,0.604 -3.602,0.833c-0.907,0.131 -1.548,0.278 -1.924,0.441c-0.375,0.163 -0.665,0.402 -0.869,0.717c-0.205,0.314 -0.307,0.663 -0.307,1.047c0,0.588 0.223,1.079 0.668,1.471c0.445,0.392 1.097,0.588 1.954,0.588c0.85,0 1.605,-0.186 2.267,-0.558c0.661,-0.371 1.147,-0.88 1.458,-1.525c0.237,-0.498 0.355,-1.233 0.355,-2.205l0,-0.809Z" style="fill-opacity:0.5;fill-rule:nonzero;"/><path d="M1043.07,964.587l0,-17.961l12.988,0l0,2.119l-10.611,0l0,5.502l9.937,0l0,2.107l-9.937,0l0,6.114l11.027,0l0,2.119l-13.404,0Z" style="fill-opacity:0.5;fill-rule:nonzero;"/><rect x="1059.42" y="946.626" width="2.205" height="17.961" style="fill-opacity:0.5;fill-rule:nonzero;"/><path d="M1072.2,964.587l0,-17.961l2.377,0l0,8.907l8.919,-8.907l3.222,0l-7.535,7.277l7.866,10.684l-3.136,0l-6.396,-9.091l-2.94,2.867l0,6.224l-2.377,0Z" style="fill-opacity:0.5;fill-rule:nonzero;"/><path d="M1088.76,964.587l0,-17.961l2.206,0l0,6.444c1.029,-1.192 2.328,-1.788 3.896,-1.788c0.964,0 1.801,0.189 2.511,0.569c0.711,0.38 1.22,0.905 1.526,1.575c0.306,0.669 0.459,1.641 0.459,2.916l0,8.245l-2.205,0l0,-8.245c0,-1.103 -0.239,-1.906 -0.717,-2.408c-0.478,-0.502 -1.154,-0.753 -2.028,-0.753c-0.653,0 -1.268,0.169 -1.843,0.508c-0.576,0.339 -0.987,0.798 -1.232,1.378c-0.245,0.58 -0.367,1.381 -0.367,2.402l0,7.118l-2.206,0Z" style="fill-opacity:0.5;fill-rule:nonzero;"/><path d="M1111.2,962.982c-0.817,0.694 -1.603,1.185 -2.358,1.47c-0.756,0.286 -1.567,0.429 -2.433,0.429c-1.429,0 -2.528,-0.349 -3.295,-1.047c-0.768,-0.699 -1.152,-1.591 -1.152,-2.677c0,-0.637 0.145,-1.219 0.435,-1.746c0.29,-0.527 0.67,-0.95 1.139,-1.268c0.47,-0.319 0.999,-0.56 1.587,-0.723c0.433,-0.115 1.086,-0.225 1.96,-0.331c1.781,-0.212 3.092,-0.466 3.933,-0.76c0.008,-0.302 0.012,-0.494 0.012,-0.575c0,-0.899 -0.208,-1.532 -0.624,-1.9c-0.564,-0.498 -1.401,-0.747 -2.512,-0.747c-1.037,0 -1.803,0.182 -2.297,0.545c-0.494,0.364 -0.86,1.007 -1.097,1.93l-2.156,-0.294c0.196,-0.923 0.518,-1.668 0.968,-2.236c0.449,-0.568 1.098,-1.005 1.948,-1.311c0.849,-0.306 1.834,-0.459 2.953,-0.459c1.11,0 2.013,0.13 2.707,0.392c0.695,0.261 1.205,0.59 1.532,0.986c0.326,0.396 0.555,0.896 0.686,1.501c0.073,0.375 0.11,1.053 0.11,2.034l0,2.94c0,2.05 0.047,3.347 0.141,3.89c0.094,0.543 0.28,1.064 0.557,1.562l-2.303,0c-0.229,-0.457 -0.376,-0.992 -0.441,-1.605Zm-0.184,-4.925c-0.8,0.327 -2.001,0.604 -3.602,0.833c-0.907,0.131 -1.548,0.278 -1.923,0.441c-0.376,0.163 -0.666,0.402 -0.87,0.717c-0.205,0.314 -0.307,0.663 -0.307,1.047c0,0.588 0.223,1.079 0.668,1.471c0.445,0.392 1.097,0.588 1.954,0.588c0.85,0 1.605,-0.186 2.267,-0.558c0.662,-0.371 1.148,-0.88 1.458,-1.525c0.237,-0.498 0.355,-1.233 0.355,-2.205l0,-0.809Z" style="fill-opacity:0.5;fill-rule:nonzero;"/><path d="M1125.11,964.587l0,-1.642c-0.825,1.291 -2.038,1.936 -3.639,1.936c-1.037,0 -1.991,-0.286 -2.861,-0.857c-0.87,-0.572 -1.543,-1.371 -2.021,-2.396c-0.478,-1.025 -0.717,-2.203 -0.717,-3.534c0,-1.299 0.216,-2.477 0.649,-3.535c0.433,-1.058 1.083,-1.868 1.948,-2.432c0.866,-0.564 1.834,-0.845 2.904,-0.845c0.784,0 1.483,0.165 2.095,0.496c0.613,0.331 1.111,0.761 1.495,1.292l0,-6.444l2.193,0l0,17.961l-2.046,0Zm-6.971,-6.493c0,1.666 0.351,2.912 1.053,3.737c0.703,0.824 1.532,1.237 2.488,1.237c0.963,0 1.782,-0.394 2.456,-1.182c0.674,-0.789 1.011,-1.991 1.011,-3.609c0,-1.78 -0.343,-3.087 -1.029,-3.92c-0.686,-0.833 -1.532,-1.25 -2.537,-1.25c-0.98,0 -1.799,0.4 -2.456,1.201c-0.658,0.8 -0.986,2.062 -0.986,3.786Z" style="fill-opacity:0.5;fill-rule:nonzero;"/><path d="M1130.6,964.587l0,-13.011l1.985,0l0,1.972c0.506,-0.923 0.974,-1.531 1.403,-1.825c0.428,-0.294 0.9,-0.441 1.415,-0.441c0.743,0 1.499,0.236 2.266,0.71l-0.759,2.046c-0.539,-0.318 -1.078,-0.478 -1.617,-0.478c-0.482,0 -0.915,0.145 -1.299,0.435c-0.384,0.29 -0.658,0.693 -0.821,1.207c-0.245,0.784 -0.368,1.642 -0.368,2.573l0,6.812l-2.205,0Z" style="fill-opacity:0.5;fill-rule:nonzero;"/><path d="M1138.99,949.162l0,-2.536l2.205,0l0,2.536l-2.205,0Zm0,15.425l0,-13.011l2.205,0l0,13.011l-2.205,0Z" style="fill-opacity:0.5;fill-rule:nonzero;"/></g></svg>